<?xml version="1.0"?><svg version="1.1" id="Layer_1" xmlns="http://www.w3.org/2000/svg" x="0" y="0" viewBox="0 0 100 100" xml:space="preserve"><g id="XMLID_934_"><path id="XMLID_964_" d="M70.43 10.915c-.041.054-.198.071-.401.071.319.003.517-.01.401-.071z" fill="#999998"/><path id="XMLID_1038_" d="M70.029 10.987l-.076-.001v.003c.03.001.049-.002.076-.002z" fill="#999998"/><path id="XMLID_1041_" d="M91.987 43.535c-.331-.849-.834-1.641-1.366-2.347l-1.184-.618c-.333-.118-.606-.137-.916-.164.109-.516-.542-.144-.706-.558.84-1.935-.147-2.03-.341-1.199-.719-.602-1.111-1.437-1.625-2.06a22.33 22.33 0 0 0-.992-.673c-.307-.175-.191-.474.065-.851-.679-.523-.177-.581-.521-1.387.396-.531-2.055-1.186-2.038-1.494l.156.061c-.48-.875.137-2.114-.376-2.938-1.171-2.47-3.244-4.61-4.501-6.776-.553.358.436.367-.261.892-.752-1.27-.936-2.955-1.7-4.234-.009-.321.074-.78.175-1-.072-.53-.418-.049-.549-.382l.46-.38c-.691-.136.113-.987-.363-1.237-.211.117-.337-.008-.419-.157.511-.369-.337-.403.149-.714l-.042.023c-.05-.09-.126-.126-.109-.291-.293-.032-2.756-.53-3.089-.538l.032-.135c-.172-.212-.623-.039-.624.157l-.165-.295.058.007-.163-.294c.01-.082.21-.308.492-.39-.289-.029-.509-.134-.526-.354a10.95 10.95 0 0 1-.295 2.325c-.308-.061-.268-.589-.465-.75.173-.479.116-1.177.082-1.725-.089-.064-.705.283-.586-.087.332-.373-.166-.206.01-.567.341.034.37.28.48.48.447-.361.002-.675.031-.914-.196.035-.294-.43-.582-.563.34-.143.304-.264.28-.415l-.075-.004.074.001a.421.421 0 0 1 .029-.269c-.052-.19-.301-.159-.417.014a.395.395 0 0 0-.195.219c-.677-.062-1.414-.167-1.361-.072-.013.091-.104.144-.205.192a.267.267 0 0 0-.079.04c-.135.057-.265.112-.261.219l.157-.023c.338.751-3.089 1.302-2.697 2.175.35-.744.677-.308.991-.007a1.238 1.238 0 0 0-.332.892c.199.186.304-.022.481-.084-.047.213.005.521-.324.707.485-.087-.043.435.226.55.295.06.15-.124.416-.12.151.296.363.71.443.974-.23.285-.563.896-1.139 1.027-.225-.451.838-.356.443-.713-.53.645-.444-.249-.997.024-.202.344-.012.62.231.792l.055-.107c.228.141.65.449.451.916-.267.111-.374.328-.535.219l.152.309c.098-.016.199-.032.195-.15.271.005.264.207.198.404-.223.202 2.068.758 1.883.821.071.093.033.21.014.311-.53-.372-1.939-1.071-1.732-.907-.148.36 2.819 1.413 2.443 1.864.123.136.3.279.524.07.056.335-.526.257-.633.599.042-.023.114-.102.145-.039l-.193.392c.659.119.56 1.043 1.355 1.093-.352.071-.918.267-1.346.175l.098-.138c-.102.016-.34-.14-.584.04.01.365.205.547.634.639-.033.096-.06.199-.102.285a6.28 6.28 0 0 0 .094-.072c-.094.194-.125.202-.244.239-.021.008-.044.018-.069.021-.616.666 1.148.657 1.092 1.377.197.062.132-.074.389-.005.039.668.043 1.145.217 1.75.422-.064.555-.14.75-.557l.156.439c-1.068.251-.313 1.245-1.404 1.461-.115.242 0 .489.28.6.225-.127.584-.331.765-.071-.025.556.016.399-.042.886-.223.262-.407.228-.617.394.673.215-.311.819.046 1.216.272.216.682.73 1.169.408.236.382-.114.628-.528.864l.156.336c-.714-.939-1.256-2.071-1.763-3.207-.1 3.316.264 6.892 4.904 6.143-1.712 1.475-1.086 4.184-.603 3.909.644.202 1.232.451 1.773.74a9.389 9.389 0 0 1 1.641 1.148c-1.923.632-4.047.237-6.065.471-2.179.312-4.537.817-6.401 1.431-.444.205-.783-.351-1.174-.657-1.721.35-3.928.178-5.871.596a.362.362 0 0 1 .096.021c-1.035.138-1.828-.536-2.838-.396.01.192-.147.208-.221.31-.197-.891-5.921 2.01-6.293 1.503a2.033 2.033 0 0 1-.324.112c-2.149-.351-4.405-2.046-6.239-1.845-.389.431-.829.812-1.154 1.297-.334-.378-.379.37-.774.276-1.038-1.775-1.603-1.008-1.074-.384-.813.262-1.638.123-2.364.202-.334.14-.666.285-1.002.449-.285.158-.453-.105-.609-.528-.733.274-.526-.176-1.306-.338-.203-.624-1.92 1.048-2.144.863l.124-.096c-.899-.088-1.527-1.288-2.406-1.319-2.449-.398-5.101.143-7.367-.008-.003.659.494-.16.546.711-1.335-.078-2.706-.85-4.057-.919-.248-.169-.556-.491-.674-.697-.438-.232-.244.322-.562.247l-.062-.593c-.445.501-.696-.637-1.123-.376-.015.24-.173.277-.328.264-.029-.63-.474.06-.471-.516l-.003.048c-.094-.007-.158.036-.276-.069-.17.228-1.766 2.013-1.934 2.287l-.087-.101c-.247.028-.336.499-.187.607l-.307-.024.034-.045-.305-.024c-.058-.053-.132-.344-.056-.625-.164.227-.353.354-.53.248.494.371 1.109.897 1.631 1.518-.197.224-.58-.099-.801-.022-.281-.406-.842-.739-1.279-1.009-.092.04-.13.745-.354.444-.123-.482-.239.027-.43-.317.193-.267.396-.158.603-.141-.057-.571-.516-.369-.685-.525-.069.183-.474.012-.717.181.057-.363-.053-.399-.181-.461-.012.02-.029.044-.043.065l.039-.067a.39.39 0 0 1-.191-.171c-.171-.06-.27.166-.193.357a.43.43 0 0 0 .073.283c-.379.533-.819 1.094-.72 1.102.063.06.06.166.047.276a.293.293 0 0 0-.008.088c-.022.144-.044.283.041.338l.059-.144c.739.126-.506 3.299.352 3.446-.398-.699.094-.736.477-.834.047.241.234.59.519.765.238-.065.131-.267.17-.449.14.156.4.28.381.657.17-.454.311.274.529.111.19-.215-.021-.193.111-.414.299.035.718.083.958.16.105.348.406.961.224 1.515-.453-.057.138-.896-.326-.76.232.796-.406.236-.468.849.163.357.465.349.714.238l-.055-.104c.219-.114.658-.3.915.123-.046.284.066.493-.095.567l.309.043c.036-.091.072-.184-.018-.245.137-.224.286-.107.403.056.044.297 1.587-1.312 1.544-1.124.106-.008.177.09.245.161-.537.233-1.765 1.031-1.538.948.199.321 2.452-1.581 2.609-1.019.163-.028.359-.098.31-.399.282.137-.064.581.143.858.003-.048-.021-.151.042-.142l.202.377c.414-.484 1.064.108 1.494-.528-.12.332-.25.913-.53 1.219l-.056-.158c-.038.094-.273.207-.256.509.281.193.515.13.794-.176.056.08.121.16.165.242l-.008-.118c.101.185.091.216.061.336a.351.351 0 0 1-.018.069c.2.881 1.061-.596 1.577-.152.144-.13.009-.151.188-.327.524.336.885.595 1.428.785.16-.387.169-.54-.05-.933l.409.113c-.338 1.029.785.95.409 1.978.125.23.369.271.591.099.015-.257.039-.669.324-.676.407.328.309.208.647.525.087.33-.03.466-.008.731.495-.442.463.712.939.635.297-.107.887-.163.885-.748.404.015.416.443.389.919l.33.057c-1.06.073-2.18-.101-3.286-.307 2.448 1.916 5.313 3.6 7.054-.676.259 2.242 2.608 3.229 2.641 2.674a9.149 9.149 0 0 1 1.439-1.062c3.08-1.821 6.494-1.14 10.029-.353 1.959.387 7.269.753 9.286 1.355.292.075.582.144.877.201l-.98-.38c1.205-.63 2.296-1.24 3.358-1.652-.197-.319-.237-.63-.696-1.063l.552.201c.475-.945 1.623-.933 2.152-1.34-.104.493.324.579.701.643l-.157-.32c1.428.169 3.071-.275 4.345-.248.177-.006.315.174.4.34l1.21-.41c-.076.658 1.028.547.457.974.892-.8 1.833-.352 2.681-1.179a33.048 33.048 0 0 0 8.665-1.693c-.131 1.066-.271 2.069-.521 2.989.379.016.665.163 1.293.015l-.502.362c.473.961-.258 1.955-.263 2.659-.329-.383-.675-.061-.97.23l.358.054c-1.05 1.143-1.785 2.856-2.656 3.979-.114.164-.35.18-.54.157l-.483 1.342c-.476-.47-1.131.617-1.089-.166.046 1.319-.957 1.911-.838 3.216-1.903 3.065-3.447 6.866-3.82 10.771l.26.006c-.117 1.381.757 2.871-.138 4.195.498 1.313.567 2.923 1.77 3.654-.11 1.222.482 1.853.573 3.059.723-.166.566 1.269 1.198.797 1.088-.553.309-.752 1.19-1.214l-.226-.03c1.607-2.685 2.963-5.191 4.354-7.621.216-1.949 1.539-3.574 2.436-5.378.88-1.988 1.909-4.275 2.634-6.274.122-.51.787-.471 1.283-.627.852-1.729 2.484-3.597 3.447-5.669a.469.469 0 0 1-.081.077c.582-1.037 1.659-1.395 2.206-2.454-.164-.1-.074-.26-.11-.388.439.168.991-1.555 1.464-3.331l.179-.66.259-.858.486-1.551c.297-.9.541-1.503.738-1.598.038-.158.084-.317.143-.477.443-.766.904-1.55 1.236-2.418a6.974 6.974 0 0 0 .487-2.707 7.632 7.632 0 0 0-.508-2.616zM67.614 11.792c-.108.102-.225.187-.316.21-.049-.093.091-.16.316-.21zm1.301-.143l.138-.01c.118-.207-.123-.421-.246-.555-.184.127-.181.197-.262.253a.782.782 0 0 1-.304-.054.992.992 0 0 0-.071-.04l.009-.064c-.075-.015-.133-.047-.188-.076-.014-.042-.004-.095.047-.168.096-.018.102.087.131.145-.067-.124.571-.119 1.19-.105-.067.238.104.508-.157.653.045-.004.081-.009.109-.013l-.037.165a.628.628 0 0 1-.359-.131zM8.029 47.165c-.095-.009-.079-.163-.007-.38.025.146.034.29.007.38zm.519-1.548l.06-.121c-.101-.212-.383-.127-.546-.096.008.223.062.259.066.358a.74.74 0 0 1-.19.226c-.022.011-.044.024-.066.037l-.045-.042c-.048.055-.101.086-.15.116-.039-.011-.074-.048-.106-.131.033-.09.117-.038.175-.031-.128-.012.188-.543.501-1.054.15.185.44.189.424.487.019-.04.033-.073.043-.099l.109.121a.57.57 0 0 1-.275.229z" fill="#999998"/><path id="XMLID_1059_" d="M69.202 11.626l-.149.013c-.01.017-.005.034-.02.051a.58.58 0 0 0 .169-.064z" fill="#999998"/><path id="XMLID_1060_" d="M8.602 44.29l-.056.095.003.002c.023-.036.034-.063.053-.097z" fill="#999998"/><path id="XMLID_1061_" d="M8.726 43.948c.02.059-.038.189-.124.343.141-.242.221-.404.124-.343z" fill="#999998"/><path id="XMLID_1062_" d="M8.67 45.364l-.063.132c.008.017.024.023.029.045a.599.599 0 0 0 .034-.177z" fill="#999998"/></g><metadata xmlns:d="https://loading.io/stock/">
<d:name>right</d:name>
<d:tags>next,draw,follow,turn,east,sketch,right,arrow</d:tags>
<d:license>by</d:license>
<d:slug>udyw3y</d:slug>
</metadata></svg>