<?xml version="1.0" encoding="utf-8"?><svg viewBox="0 0 100 100" xmlns="http://www.w3.org/2000/svg" width="200px" height="200px" xmlns:xlink="http://www.w3.org/1999/xlink" style="width:100%;height:100%;background-size:initial;background-repeat-y:initial;background-repeat-x:initial;background-position-y:initial;background-position-x:initial;background-origin:initial;background-color:initial;background-clip:initial;background-attachment:initial;animation-play-state:paused" ><g class="ldl-scale" style="transform-origin:50% 50%;transform:rotate(0deg) scale(0.8, 0.8);animation-play-state:paused" ><path fill="#323232" d="M36.12 30.817a7.992 7.992 0 0 0 0-11.302l-7.174-7.174a7.992 7.992 0 0 0-11.302 0l.013-.013L13.984 16C-7.313 37.297 62.703 107.313 84 86.016l3.672-3.672-.013.013a7.992 7.992 0 0 0 0-11.302l-7.174-7.174a7.992 7.992 0 0 0-11.302 0l-2.892 2.892c-2.326 2.326-6.026 2.477-8.569.39-8.771-7.198-17.687-16.113-24.884-24.884-2.087-2.543-1.936-6.243.39-8.569l2.892-2.893z" style="fill:rgb(50, 50, 50);animation-play-state:paused" ></path>
<metadata xmlns:d="https://loading.io/stock/" style="animation-play-state:paused" ><d:name style="animation-play-state:paused" >support</d:name>


<d:tags style="animation-play-state:paused" >support,helpdesk,contact,information,call center,operator,concall</d:tags>


<d:license style="animation-play-state:paused" >by</d:license>


<d:slug style="animation-play-state:paused" >xcx3an</d:slug></metadata></g><!-- generated by https://loading.io/ --></svg>