<?xml version="1.0" encoding="utf-8"?><svg xml:space="preserve" viewBox="0 0 100 100" y="0" x="0" xmlns="http://www.w3.org/2000/svg" id="圖層_1" version="1.1" width="200px" height="200px" xmlns:xlink="http://www.w3.org/1999/xlink" style="width:100%;height:100%;background-size:initial;background-repeat-y:initial;background-repeat-x:initial;background-position-y:initial;background-position-x:initial;background-origin:initial;background-color:initial;background-clip:initial;background-attachment:initial;animation-play-state:paused" ><g class="ldl-scale" style="transform-origin:50% 50%;transform:rotate(0deg) scale(0.8, 0.8);animation-play-state:paused" ><circle fill="#333" r="40" cy="50" cx="50" style="fill:rgb(51, 51, 51);animation-play-state:paused" ></circle>
<path fill="#e0e0e0" d="M65.838 37.502v-2.109a1.88 1.88 0 0 0-1.88-1.88H36.042a1.88 1.88 0 0 0-1.88 1.88v2.109L27.5 51.435c0 2.624 2.436 3.749 4.532 3.382v11.67H53.75v-11.6c1.875 0 3.75-1.151 3.75-3.452 0 3.01 3.207 4.051 5.427 3.124v11.928h5.041v-11.67c2.096.367 4.532-.758 4.532-3.382l-6.662-13.933zM36.623 60.649v-6.317c2.205 1.288 5.877.324 5.877-2.897 0 3.252 3.742 4.203 5.939 2.86v6.355H36.623z" style="fill:rgb(224, 224, 224);animation-play-state:paused" ></path>
<metadata xmlns:d="https://loading.io/stock/" style="animation-play-state:paused" ><d:name style="animation-play-state:paused" >house</d:name>
<d:tags style="animation-play-state:paused" >house,store,grocery,warehouse,merchant,market,building</d:tags>
<d:license style="animation-play-state:paused" >by</d:license>
<d:slug style="animation-play-state:paused" >236vhb</d:slug></metadata></g><!-- generated by https://loading.io/ --></svg>