<?xml version="1.0" encoding="utf-8"?><svg xml:space="preserve" viewBox="0 0 100 100" y="0" x="0" xmlns="http://www.w3.org/2000/svg" id="圖層_1" version="1.1" width="200px" height="200px" xmlns:xlink="http://www.w3.org/1999/xlink" style="width:100%;height:100%;background-size:initial;background-repeat-y:initial;background-repeat-x:initial;background-position-y:initial;background-position-x:initial;background-origin:initial;background-color:initial;background-clip:initial;background-attachment:initial;animation-play-state:paused" ><g class="ldl-scale" style="transform-origin:50% 50%;transform:rotate(0deg) scale(-0.85, 0.85);animation-play-state:paused" ><path fill="#333" d="M63.9 54.3h.9H63.9z" style="fill:rgb(50, 50, 50);animation-play-state:paused" ></path>
<path d="M40.4 23.1v-6.7L7.5 43.6l32.9 27.2v-6.7L15.6 43.6z" fill="#666" style="fill:rgb(101, 101, 101);animation-play-state:paused" ></path>
<path fill="#333" d="M92.5 63c0-.6 0-1.2-.1-1.9-.1-2.5-.1-5.4-.7-8.2-.3-1.4-.7-2.8-1.2-4.2-.5-1.4-1.1-2.8-1.8-4.2-1.5-2.7-3.4-5.3-5.8-7.4-1.2-1-2.5-2-3.9-2.6-1.4-.7-2.9-1.1-4.4-1.4-1.5-.3-2.6-.4-4.1-.5l-3.1-.2H56.8v-16l-8.1 6.7-25 20.5 24.8 20.5 8.1 6.7V54.3h17.5c.6 0 .9.1 1.5.3 1.3.3 2.7.8 3.9 1.5 1.3.7 2.6 1.7 3.7 2.8.4.4.7.8 1 1.2 1.8 2.2 3.4 4.9 4.3 8.3V68c.8 5.2 1.7 10.4 2.5 15.6l.7-7.6.3-3.8c.1-1.3.2-2.5.4-3.8v-3.6c.1-.6.1-1.2.1-1.8z" style="fill:rgb(50, 50, 50);animation-play-state:paused" ></path>
<metadata xmlns:d="https://loading.io/stock/" style="animation-play-state:paused" ><d:name style="animation-play-state:paused" >reply to all</d:name>
<d:tags style="animation-play-state:paused" >group,cc,mail,send,message,deliver,post,reply to all,web application</d:tags>
<d:license style="animation-play-state:paused" >free</d:license>
<d:slug style="animation-play-state:paused" >lvfwc5</d:slug></metadata></g><!-- generated by https://loading.io/ --></svg>