<?xml version="1.0" encoding="utf-8"?><svg viewBox="0 0 100 100" xmlns="http://www.w3.org/2000/svg" width="197px" height="197px" xmlns:xlink="http://www.w3.org/1999/xlink" style="width:100%;height:100%;background-size:initial;background-repeat-y:initial;background-repeat-x:initial;background-position-y:initial;background-position-x:initial;background-origin:initial;background-color:initial;background-clip:initial;background-attachment:initial;animation-play-state:paused" ><g class="ldl-scale" style="transform-origin:50% 50%;transform:rotate(0deg) scale(0.8, 0.8);animation-play-state:paused" ><path fill="#f5e169" d="M51.827 47.172l22.172-32.545c1.27-1.702.378-4.627-1.412-4.627l-28.75.002c-2.042 0-3.904 1.579-4.791 4.062l-21.36 50.354c-.343.914.145 1.996.904 2.004h33.231l-7.349 18.66c-.596 1.381-.366 3.142.545 4.163.911 1.021 2.236 1.004 3.132-.041L82.07 49.661c.72-.839.275-2.434-.676-2.424l-29.567-.065z" style="fill:rgb(245, 225, 105);animation-play-state:paused" ></path>
<path fill="#f8b26a" d="M63.824 63.963l13.479-19.785c.773-1.034.23-2.813-.858-2.813l-17.478.001c-1.242 0-2.374.96-2.913 2.47L43.068 74.448c-.209.555.088 1.214.549 1.218h20.202L59.352 87.01c-.363.84-.222 1.91.332 2.531.554.621 1.359.61 1.904-.025l20.622-24.04c.438-.51.167-1.48-.411-1.474l-17.975-.039z" style="fill:rgb(248, 178, 106);animation-play-state:paused" ></path>
<metadata xmlns:d="https://loading.io/stock/" style="animation-play-state:paused" ><d:name style="animation-play-state:paused" >thunder</d:name>


<d:tags style="animation-play-state:paused" >thunder,lightning,electronic,electricity,power,energy,supply,plant,percent,ratio,charge</d:tags>


<d:license style="animation-play-state:paused" >by</d:license>


<d:slug style="animation-play-state:paused" >tz7ult</d:slug></metadata></g><!-- generated by https://loading.io/ --></svg>