<?xml version="1.0" encoding="utf-8"?><svg xml:space="preserve" viewBox="0 0 100 100" y="0" x="0" xmlns="http://www.w3.org/2000/svg" id="圖層_1" version="1.1" width="200px" height="200px" xmlns:xlink="http://www.w3.org/1999/xlink" style="width:100%;height:100%;background-size:initial;background-repeat-y:initial;background-repeat-x:initial;background-position-y:initial;background-position-x:initial;background-origin:initial;background-color:initial;background-clip:initial;background-attachment:initial;animation-play-state:paused" ><g class="ldl-scale" style="transform-origin:50% 50%;transform:rotate(0deg) scale(0.8, 0.8);animation-play-state:paused" ><circle fill="#333" r="40" cy="50" cx="50" style="fill:rgb(50, 50, 50);animation-play-state:paused" ></circle>
<path fill="#fff" d="M67.639 45.496a5.065 5.065 0 0 0-4.885 3.761l-9.432-.632a3.844 3.844 0 0 0-1.485-2.363l3.172-7.85c.428.097.872.152 1.329.152 3.326 0 6.032-2.706 6.032-6.032S59.664 26.5 56.338 26.5s-6.032 2.706-6.032 6.032a6.03 6.03 0 0 0 2.904 5.148l-3.173 7.852a3.83 3.83 0 0 0-.494-.035c-.816 0-1.572.257-2.195.692l-8.955-7.664a4.826 4.826 0 0 0 .612-2.352c0-2.676-2.177-4.853-4.853-4.853S29.3 33.495 29.3 36.171s2.177 4.853 4.853 4.853a4.822 4.822 0 0 0 2.976-1.028l8.959 7.667a3.822 3.822 0 0 0 .26 3.819l-7.618 8.585a5.023 5.023 0 0 0-2.566-.707c-2.791 0-5.061 2.271-5.061 5.061s2.27 5.061 5.061 5.061 5.061-2.271 5.061-5.061a5.031 5.031 0 0 0-1.043-3.065l7.62-8.588a3.814 3.814 0 0 0 2.96.221l5.684 8.723a6.176 6.176 0 0 0-2.048 4.589 6.203 6.203 0 0 0 6.196 6.196 6.203 6.203 0 0 0 6.196-6.196 6.203 6.203 0 0 0-6.196-6.196c-.9 0-1.753.197-2.525.543l-5.682-8.722a3.84 3.84 0 0 0 .805-1.367l9.431.632a5.066 5.066 0 0 0 5.017 4.425 5.067 5.067 0 0 0 5.061-5.061 5.067 5.067 0 0 0-5.062-5.059zM52.248 32.532a4.095 4.095 0 0 1 4.09-4.09c2.255 0 4.09 1.835 4.09 4.09s-1.835 4.09-4.09 4.09c-.2 0-.395-.019-.587-.047a4.05 4.05 0 0 1-1.799-.728 4.085 4.085 0 0 1-1.704-3.315zm-18.095 6.551c-1.606 0-2.912-1.306-2.912-2.912s1.306-2.912 2.912-2.912a2.915 2.915 0 0 1 2.912 2.912c0 .368-.076.718-.201 1.042a2.907 2.907 0 0 1-1.267 1.471 2.875 2.875 0 0 1-1.444.399zm5.13 25.34c0 1.72-1.4 3.12-3.12 3.12s-3.12-1.4-3.12-3.12c0-1.72 1.4-3.12 3.12-3.12.441 0 .86.093 1.241.259a3.136 3.136 0 0 1 1.879 2.861zm19.865-2.116a4.23 4.23 0 0 1 1.446-.258 4.26 4.26 0 0 1 4.255 4.255c0 2.346-1.909 4.255-4.255 4.255s-4.255-1.909-4.255-4.255c0-1.139.452-2.172 1.184-2.937a4.258 4.258 0 0 1 1.625-1.06zm-9.525-11.064c-.027.001-.052.008-.079.008a1.905 1.905 0 0 1-1.809-1.332 1.89 1.89 0 0 1-.098-.575c0-.112.014-.22.033-.326a1.902 1.902 0 0 1 1.586-1.551c.095-.015.189-.029.288-.029a1.897 1.897 0 0 1 1.692 1.047c.132.259.214.549.214.859 0 .302-.077.584-.203.838a1.867 1.867 0 0 1-.134.24 1.9 1.9 0 0 1-1.49.821zm18.016 2.434a3.123 3.123 0 0 1-2.891-4.286 3.122 3.122 0 0 1 2.891-1.953c1.72 0 3.12 1.4 3.12 3.12 0 1.72-1.4 3.119-3.12 3.119z" style="fill:rgb(255, 255, 255);animation-play-state:paused" ></path>
<metadata xmlns:d="https://loading.io/stock/" style="animation-play-state:paused" ><d:name style="animation-play-state:paused" >network</d:name>


<d:tags style="animation-play-state:paused" >network,social,connection,graph,chart,link,relationship,society,topology,diagram,infrastructure</d:tags>


<d:license style="animation-play-state:paused" >by</d:license>


<d:slug style="animation-play-state:paused" >4y0ruq</d:slug></metadata></g><!-- generated by https://loading.io/ --></svg>